<svg xmlns="http://www.w3.org/2000/svg" xmlns:xlink="http://www.w3.org/1999/xlink" width="64px" height="64px" preserveAspectRatio="xMidYMid meet" viewBox="0 0 48 48" style="-ms-transform: rotate(360deg); -webkit-transform: rotate(360deg); transform: rotate(360deg);"><circle fill="#00ACC1" cx="17" cy="17" r="14"/><circle fill="#eee" cx="17" cy="17" r="11"/><path d="M16 8h2v9h-2z" fill="#000"/><path d="M22.655 20.954l-1.697 1.697l-4.808-4.807l1.697-1.697z" fill="#000"/><circle cx="17" cy="17" r="2" fill="#000"/><circle fill="#00ACC1" cx="17" cy="17" r="1"/><path fill="#FFC107" d="M11.9 42l14.4-24.1c.8-1.3 2.7-1.3 3.4 0L44.1 42c.8 1.3-.2 3-1.7 3H13.6c-1.5 0-2.5-1.7-1.7-3z"/><path fill="#263238" d="M26.4 39.9c0-.2 0-.4.1-.6s.2-.3.3-.5s.3-.2.5-.3s.4-.1.6-.1s.5 0 .7.1s.4.2.5.3s.2.3.3.5s.1.4.1.6s0 .4-.1.6s-.2.3-.3.5s-.3.2-.5.3s-.4.1-.7.1s-.5 0-.6-.1s-.4-.2-.5-.3s-.2-.3-.3-.5s-.1-.4-.1-.6zm2.8-3.1h-2.3l-.4-9.8h3l-.3 9.8z"/><rect x="0" y="0" width="48" height="48" fill="rgba(0, 0, 0, 0)" /></svg>